<svg width="21" height="20" viewBox="0 0 21 20" fill="none" xmlns="http://www.w3.org/2000/svg">
<path d="M19.5 15.8109V8.8663C19.5 7.88216 19.0726 6.95316 18.3418 6.34896L12.9558 1.89571C11.5113 0.701431 9.48868 0.70143 8.04424 1.89571L2.65818 6.34896C1.92742 6.95316 1.5 7.88216 1.5 8.8663V15.8109C1.5 17.5722 2.84315 19 4.5 19H6.5C7.05228 19 7.5 18.5523 7.5 18V14.7478C7.5 12.9865 8.84315 11.5587 10.5 11.5587C12.1569 11.5587 13.5 12.9865 13.5 14.7478V18C13.5 18.5523 13.9477 19 14.5 19H16.5C18.1569 19 19.5 17.5722 19.5 15.8109Z" stroke="#878F9D" stroke-width="2"/>
</svg>
