<?xml version="1.0" encoding="UTF-8"?>
<!DOCTYPE svg PUBLIC "-//W3C//DTD SVG 1.1//EN" "http://www.w3.org/Graphics/SVG/1.1/DTD/svg11.dtd">
<svg xmlns="http://www.w3.org/2000/svg" version="1.1" width="207px" height="80px" style="shape-rendering:geometricPrecision; text-rendering:geometricPrecision; image-rendering:optimizeQuality; fill-rule:evenodd; clip-rule:evenodd" xmlns:xlink="http://www.w3.org/1999/xlink">
<g><path style="opacity:0.596" fill="#88cac0" d="M 43.5,3.5 C 44.1667,3.5 44.8333,3.5 45.5,3.5C 46.925,4.92203 47.925,6.5887 48.5,8.5C 46.5,7.16667 44.8333,5.5 43.5,3.5 Z"/></g>
<g><path style="opacity:0.943" fill="#72c2b8" d="M 50.5,5.5 C 51.1667,5.83333 51.8333,6.16667 52.5,6.5C 54.9897,11.975 54.9897,17.3083 52.5,22.5C 53.944,16.6014 53.2773,10.9347 50.5,5.5 Z"/></g>
<g><path style="opacity:1" fill="#a2d4cb" d="M 39.5,4.5 C 42.5,5.5 44.5,7.5 45.5,10.5C 43.1667,8.83333 41.1667,6.83333 39.5,4.5 Z"/></g>
<g><path style="opacity:0.918" fill="#b2dbd3" d="M 31.5,5.5 C 34.0593,5.19845 36.3926,5.53178 38.5,6.5C 35.9407,6.19845 33.6074,6.53178 31.5,7.5C 29.2459,8.41511 27.2459,9.74844 25.5,11.5C 25.5,11.1667 25.5,10.8333 25.5,10.5C 26.8908,8.10973 28.8908,6.44306 31.5,5.5 Z"/></g>
<g><path style="opacity:1" fill="#c2e2db" d="M 31.5,8.5 C 31.5,8.16667 31.5,7.83333 31.5,7.5C 39.9927,6.99471 43.6594,10.9947 42.5,19.5C 42.1667,19.5 41.8333,19.5 41.5,19.5C 41.8016,16.9407 41.4682,14.6074 40.5,12.5C 39.205,11.5116 37.8717,10.5116 36.5,9.5C 35.0813,8.54885 33.4147,8.21552 31.5,8.5 Z"/></g>
<g><path style="opacity:0.984" fill="#7ac5ba" d="M 45.5,3.5 C 47.2838,3.89254 48.9505,4.5592 50.5,5.5C 53.2773,10.9347 53.944,16.6014 52.5,22.5C 52.6716,23.4916 52.3382,24.1583 51.5,24.5C 49.5293,26.8082 47.5293,29.1415 45.5,31.5C 42.9823,32.2638 40.649,33.2638 38.5,34.5C 32.7418,34.7271 27.4085,33.3938 22.5,30.5C 21.596,29.791 21.2627,28.791 21.5,27.5C 22.922,28.925 24.5887,29.925 26.5,30.5C 28.8066,32.0468 31.4733,32.7135 34.5,32.5C 36.6965,32.4954 38.6965,32.162 40.5,31.5C 45.6041,30.0624 48.6041,26.7291 49.5,21.5C 50.1611,19.866 50.4944,18.0326 50.5,16C 50.7001,13.1345 50.0334,10.6345 48.5,8.5C 47.925,6.5887 46.925,4.92203 45.5,3.5 Z"/></g>
<g><path style="opacity:0.898" fill="#6dc1b6" d="M 52.5,6.5 C 60.5383,13.5201 62.705,22.1868 59,32.5C 51.376,43.5311 41.5427,46.0311 29.5,40C 26.8823,37.8943 24.8823,35.3943 23.5,32.5C 28.3649,35.2324 33.3649,35.8991 38.5,34.5C 41.491,34.8337 43.8243,33.8337 45.5,31.5C 48.9464,30.3882 50.9464,28.0548 51.5,24.5C 52.3382,24.1583 52.6716,23.4916 52.5,22.5C 54.9897,17.3083 54.9897,11.975 52.5,6.5 Z"/></g>
<g><path style="opacity:1" fill="#b7ddd6" d="M 31.5,7.5 C 33.6074,6.53178 35.9407,6.19845 38.5,6.5C 44.576,9.69447 45.9093,14.0278 42.5,19.5C 43.6594,10.9947 39.9927,6.99471 31.5,7.5 Z"/></g>
<g><path style="opacity:1" fill="#c8e5df" d="M 31.5,8.5 C 33.4147,8.21552 35.0813,8.54885 36.5,9.5C 33.2118,9.01558 30.5452,10.0156 28.5,12.5C 28.5,12.1667 28.5,11.8333 28.5,11.5C 29.1667,10.1667 30.1667,9.16667 31.5,8.5 Z"/></g>
<g><path style="opacity:1" fill="#87cabf" d="M 48.5,8.5 C 50.0334,10.6345 50.7001,13.1345 50.5,16C 50.4944,18.0326 50.1611,19.866 49.5,21.5C 49.6282,17.1186 49.2949,12.7853 48.5,8.5 Z"/></g>
<g><path style="opacity:1" fill="#bbdfd8" d="M 31.5,7.5 C 31.5,7.83333 31.5,8.16667 31.5,8.5C 30.1667,9.16667 29.1667,10.1667 28.5,11.5C 27.0069,12.3121 26.3402,13.6455 26.5,15.5C 26.5195,16.7261 26.8529,17.7261 27.5,18.5C 27.5,19.1667 27.5,19.8333 27.5,20.5C 26.8826,20.3893 26.3826,20.056 26,19.5C 25.5034,17.1902 25.3367,14.8568 25.5,12.5C 25.5,12.1667 25.5,11.8333 25.5,11.5C 27.2459,9.74844 29.2459,8.41511 31.5,7.5 Z"/></g>
<g><path style="opacity:1" fill="#abd8d0" d="M 31.5,5.5 C 32.209,4.59603 33.209,4.26269 34.5,4.5C 36.1667,4.5 37.8333,4.5 39.5,4.5C 41.1667,6.83333 43.1667,8.83333 45.5,10.5C 45.5,14.1667 45.5,17.8333 45.5,21.5C 43.5484,22.7847 41.8818,24.4514 40.5,26.5C 36.8183,26.6653 33.1516,26.4986 29.5,26C 28.944,25.6174 28.6107,25.1174 28.5,24.5C 29.1667,24.5 29.8333,24.5 30.5,24.5C 33.3035,25.6378 36.3035,25.8045 39.5,25C 40.056,24.6174 40.3893,24.1174 40.5,23.5C 41.6005,22.3951 42.2671,21.0618 42.5,19.5C 45.9093,14.0278 44.576,9.69447 38.5,6.5C 36.3926,5.53178 34.0593,5.19845 31.5,5.5 Z"/></g>
<g><path style="opacity:1" fill="#d1e9e4" d="M 36.5,9.5 C 37.8717,10.5116 39.205,11.5116 40.5,12.5C 41.1426,16.4331 40.1426,19.7664 37.5,22.5C 35.5,22.5 33.5,22.5 31.5,22.5C 30.3995,21.3951 29.7329,20.0618 29.5,18.5C 28.5489,17.0813 28.2155,15.4147 28.5,13.5C 28.5,13.1667 28.5,12.8333 28.5,12.5C 30.5452,10.0156 33.2118,9.01558 36.5,9.5 Z"/></g>
<g><path style="opacity:1" fill="#e0f0ec" d="M 38.5,13.5 C 38.7678,15.099 38.4345,16.4324 37.5,17.5C 37.7678,15.901 37.4345,14.5676 36.5,13.5C 32.6718,11.6393 31.0051,12.9726 31.5,17.5C 30.5655,16.4324 30.2322,15.099 30.5,13.5C 31.3121,12.0069 32.6455,11.3402 34.5,11.5C 36.3545,11.3402 37.6879,12.0069 38.5,13.5 Z"/></g>
<g><path style="opacity:1" fill="#c3e3dc" d="M 28.5,11.5 C 28.5,11.8333 28.5,12.1667 28.5,12.5C 28.5,12.8333 28.5,13.1667 28.5,13.5C 27.5489,14.9187 27.2155,16.5853 27.5,18.5C 26.8529,17.7261 26.5195,16.7261 26.5,15.5C 26.3402,13.6455 27.0069,12.3121 28.5,11.5 Z"/></g>
<g><path style="opacity:1" fill="#9fd3ca" d="M 45.5,10.5 C 46.8366,12.3495 47.5033,14.5161 47.5,17C 47.6932,19.0081 47.0265,20.5081 45.5,21.5C 45.5,17.8333 45.5,14.1667 45.5,10.5 Z"/></g>
<g><path style="opacity:1" fill="#e8f4f1" d="M 36.5,13.5 C 37.4345,14.5676 37.7678,15.901 37.5,17.5C 35.5,20.1667 33.5,20.1667 31.5,17.5C 31.0051,12.9726 32.6718,11.6393 36.5,13.5 Z"/></g>
<g><path style="opacity:0.888" fill="#9bd2c8" d="M 22.5,15.5 C 22.5172,17.5648 22.8505,19.5648 23.5,21.5C 22.5,21.1667 21.8333,20.5 21.5,19.5C 21.2322,17.901 21.5655,16.5676 22.5,15.5 Z"/></g>
<g><path style="opacity:1" fill="#dbede9" d="M 30.5,13.5 C 30.2322,15.099 30.5655,16.4324 31.5,17.5C 33.5,20.1667 35.5,20.1667 37.5,17.5C 38.4345,16.4324 38.7678,15.099 38.5,13.5C 40.1503,19.3462 37.817,21.5129 31.5,20C 30.9558,19.2828 30.2891,18.7828 29.5,18.5C 29.2155,16.5853 29.5489,14.9187 30.5,13.5 Z"/></g>
<g><path style="opacity:1" fill="#f2f8f7" d="M 36.5,13.5 C 36.5,14.8333 36.5,16.1667 36.5,17.5C 35.1667,17.5 33.8333,17.5 32.5,17.5C 32.2627,16.209 32.596,15.209 33.5,14.5C 34.209,13.596 35.209,13.2627 36.5,13.5 Z"/></g>
<g><path style="opacity:1" fill="#f9fcfb" d="M 33.5,14.5 C 35.337,14.6395 35.6704,15.3061 34.5,16.5C 33.7025,16.0431 33.3691,15.3764 33.5,14.5 Z"/></g>
<g><path style="opacity:1" fill="#c7e5de" d="M 40.5,12.5 C 41.4682,14.6074 41.8016,16.9407 41.5,19.5C 40.7377,21.2624 39.4044,22.2624 37.5,22.5C 40.1426,19.7664 41.1426,16.4331 40.5,12.5 Z"/></g>
<g><path style="opacity:1" fill="#c8e5de" d="M 28.5,13.5 C 28.2155,15.4147 28.5489,17.0813 29.5,18.5C 29.7329,20.0618 30.3995,21.3951 31.5,22.5C 30.8333,22.5 30.1667,22.5 29.5,22.5C 28.8333,21.8333 28.1667,21.1667 27.5,20.5C 27.5,19.8333 27.5,19.1667 27.5,18.5C 27.2155,16.5853 27.5489,14.9187 28.5,13.5 Z"/></g>
<g><path style="opacity:1" fill="#b4dcd4" d="M 25.5,12.5 C 25.3367,14.8568 25.5034,17.1902 26,19.5C 26.3826,20.056 26.8826,20.3893 27.5,20.5C 28.1667,21.1667 28.8333,21.8333 29.5,22.5C 29.8333,23.1667 30.1667,23.8333 30.5,24.5C 29.8333,24.5 29.1667,24.5 28.5,24.5C 24.5887,21.159 23.5887,17.159 25.5,12.5 Z"/></g>
<g><path style="opacity:1" fill="#a9d7cf" d="M 25.5,10.5 C 25.5,10.8333 25.5,11.1667 25.5,11.5C 25.5,11.8333 25.5,12.1667 25.5,12.5C 23.5887,17.159 24.5887,21.159 28.5,24.5C 26.5887,23.925 24.922,22.925 23.5,21.5C 22.8505,19.5648 22.5172,17.5648 22.5,15.5C 22.7497,13.326 23.7497,11.6594 25.5,10.5 Z"/></g>
<g><path style="opacity:1" fill="#95cfc5" d="M 34.5,4.5 C 37.2869,3.52333 40.2869,3.19 43.5,3.5C 44.8333,5.5 46.5,7.16667 48.5,8.5C 49.2949,12.7853 49.6282,17.1186 49.5,21.5C 48.1001,22.0998 47.1001,23.0998 46.5,24.5C 44.4602,26.177 42.4602,27.8437 40.5,29.5C 35.6952,30.9823 31.0286,30.649 26.5,28.5C 25.7377,26.7376 24.4044,25.7376 22.5,25.5C 22.0113,24.0048 21.3446,22.6715 20.5,21.5C 20.3284,20.5084 20.6618,19.8417 21.5,19.5C 21.8333,20.5 22.5,21.1667 23.5,21.5C 26.7077,27.4307 31.7077,29.5974 38.5,28C 39.4158,27.7216 40.0825,27.2216 40.5,26.5C 43.1667,25.8333 44.8333,24.1667 45.5,21.5C 47.0265,20.5081 47.6932,19.0081 47.5,17C 47.5033,14.5161 46.8366,12.3495 45.5,10.5C 44.5,7.5 42.5,5.5 39.5,4.5C 37.8333,4.5 36.1667,4.5 34.5,4.5 Z"/></g>
<g><path style="opacity:1" fill="#a0d3ca" d="M 45.5,21.5 C 44.8333,24.1667 43.1667,25.8333 40.5,26.5C 41.8818,24.4514 43.5484,22.7847 45.5,21.5 Z"/></g>
<g><path style="opacity:1" fill="#b4dbd4" d="M 37.5,23.5 C 38.5,23.5 39.5,23.5 40.5,23.5C 40.3893,24.1174 40.056,24.6174 39.5,25C 36.3035,25.8045 33.3035,25.6378 30.5,24.5C 33.0593,24.8016 35.3926,24.4682 37.5,23.5 Z"/></g>
<g><path style="opacity:1" fill="#bfe1da" d="M 29.5,22.5 C 30.1667,22.5 30.8333,22.5 31.5,22.5C 33.5,22.5 35.5,22.5 37.5,22.5C 37.5,22.8333 37.5,23.1667 37.5,23.5C 35.3926,24.4682 33.0593,24.8016 30.5,24.5C 30.1667,23.8333 29.8333,23.1667 29.5,22.5 Z"/></g>
<g><path style="opacity:1" fill="#bbdfd8" d="M 41.5,19.5 C 41.8333,19.5 42.1667,19.5 42.5,19.5C 42.2671,21.0618 41.6005,22.3951 40.5,23.5C 39.5,23.5 38.5,23.5 37.5,23.5C 37.5,23.1667 37.5,22.8333 37.5,22.5C 39.4044,22.2624 40.7377,21.2624 41.5,19.5 Z"/></g>
<g><path style="opacity:1" fill="#a1d4cb" d="M 23.5,21.5 C 24.922,22.925 26.5887,23.925 28.5,24.5C 28.6107,25.1174 28.944,25.6174 29.5,26C 33.1516,26.4986 36.8183,26.6653 40.5,26.5C 40.0825,27.2216 39.4158,27.7216 38.5,28C 31.7077,29.5974 26.7077,27.4307 23.5,21.5 Z"/></g>
<g><path style="opacity:1" fill="#8ccbc1" d="M 22.5,25.5 C 24.4044,25.7376 25.7377,26.7376 26.5,28.5C 24.5956,28.2624 23.2623,27.2624 22.5,25.5 Z"/></g>
<g><path style="opacity:1" fill="#83c8be" d="M 20.5,21.5 C 21.3446,22.6715 22.0113,24.0048 22.5,25.5C 23.2623,27.2624 24.5956,28.2624 26.5,28.5C 26.5,29.1667 26.5,29.8333 26.5,30.5C 24.5887,29.925 22.922,28.925 21.5,27.5C 20.6586,25.6208 20.3253,23.6208 20.5,21.5 Z"/></g>
<g><path style="opacity:1" fill="#8ccbc1" d="M 46.5,24.5 C 45.7322,27.5616 43.7322,29.2283 40.5,29.5C 42.4602,27.8437 44.4602,26.177 46.5,24.5 Z"/></g>
<g><path style="opacity:1" fill="#72c2b7" d="M 51.5,24.5 C 50.9464,28.0548 48.9464,30.3882 45.5,31.5C 47.5293,29.1415 49.5293,26.8082 51.5,24.5 Z"/></g>
<g><path style="opacity:1" fill="#84c9be" d="M 49.5,21.5 C 48.6041,26.7291 45.6041,30.0624 40.5,31.5C 40.5,30.8333 40.5,30.1667 40.5,29.5C 43.7322,29.2283 45.7322,27.5616 46.5,24.5C 47.1001,23.0998 48.1001,22.0998 49.5,21.5 Z"/></g>
<g><path style="opacity:1" fill="#86cabf" d="M 26.5,28.5 C 31.0286,30.649 35.6952,30.9823 40.5,29.5C 40.5,30.1667 40.5,30.8333 40.5,31.5C 38.6965,32.162 36.6965,32.4954 34.5,32.5C 31.4733,32.7135 28.8066,32.0468 26.5,30.5C 26.5,29.8333 26.5,29.1667 26.5,28.5 Z"/></g>
<g><path style="opacity:0.999" fill="#72c2b8" d="M 22.5,30.5 C 27.4085,33.3938 32.7418,34.7271 38.5,34.5C 33.3649,35.8991 28.3649,35.2324 23.5,32.5C 22.6618,32.1583 22.3284,31.4916 22.5,30.5 Z"/></g>
<g><path style="opacity:1" fill="#73c3b8" d="M 45.5,31.5 C 43.8243,33.8337 41.491,34.8337 38.5,34.5C 40.649,33.2638 42.9823,32.2638 45.5,31.5 Z"/></g>
<g><path style="opacity:0.804" fill="#909393" d="M 46.5,46.5 C 54.84,46.3336 63.1733,46.5003 71.5,47C 77.3646,47.7932 77.6979,49.1265 72.5,51C 63.5,51.6667 54.5,51.6667 45.5,51C 43.9559,50.7104 42.6226,50.0437 41.5,49C 43.1749,48.0147 44.8415,47.1814 46.5,46.5 Z"/></g>
<g><path style="opacity:0.631" fill="#19171a" d="M 5.5,64.5 C 10.1667,64.5 14.8333,64.5 19.5,64.5C 19.5,65.5 19.5,66.5 19.5,67.5C 17.5,67.5 15.5,67.5 13.5,67.5C 13.5,70.5 13.5,73.5 13.5,76.5C 12.5,76.5 11.5,76.5 10.5,76.5C 10.5,73.5 10.5,70.5 10.5,67.5C 8.83333,67.5 7.16667,67.5 5.5,67.5C 5.5,66.5 5.5,65.5 5.5,64.5 Z"/></g>
<g><path style="opacity:0.699" fill="#19171a" d="M 20.5,64.5 C 25.1667,64.5 29.8333,64.5 34.5,64.5C 34.5,65.5 34.5,66.5 34.5,67.5C 30.774,67.1774 27.1073,67.5108 23.5,68.5C 32.744,70.1268 32.744,71.1268 23.5,71.5C 23.5,72.5 23.5,73.5 23.5,74.5C 27.226,74.1774 30.8927,74.5108 34.5,75.5C 29.8804,76.4933 25.2137,76.8266 20.5,76.5C 20.5,72.5 20.5,68.5 20.5,64.5 Z"/></g>
<g><path style="opacity:0.646" fill="#19171a" d="M 36.5,64.5 C 40.8461,64.3343 45.1794,64.501 49.5,65C 52.07,67.9146 51.7366,70.5813 48.5,73C 52.7871,75.9164 52.4537,76.9164 47.5,76C 45.6277,73.0561 42.961,71.8895 39.5,72.5C 39.5,73.8333 39.5,75.1667 39.5,76.5C 38.5,76.5 37.5,76.5 36.5,76.5C 36.5,72.5 36.5,68.5 36.5,64.5 Z M 39.5,67.5 C 42.2469,67.1866 44.9135,67.52 47.5,68.5C 46.1667,68.8333 44.8333,69.1667 43.5,69.5C 41.6672,69.4146 40.3339,68.7479 39.5,67.5 Z"/></g>
<g><path style="opacity:0.647" fill="#19171a" d="M 53.5,64.5 C 54.5,64.5 55.5,64.5 56.5,64.5C 56.5,68.5 56.5,72.5 56.5,76.5C 55.5,76.5 54.5,76.5 53.5,76.5C 53.5,72.5 53.5,68.5 53.5,64.5 Z"/></g>
<g><path style="opacity:0.645" fill="#19171a" d="M 63.5,64.5 C 65.1439,64.2865 66.6439,64.6198 68,65.5C 70.034,68.7064 71.8674,72.0397 73.5,75.5C 73,75.8333 72.5,76.1667 72,76.5C 70.1113,75.0696 67.9446,74.4029 65.5,74.5C 62.8141,75.3696 60.1474,75.8696 57.5,76C 59.6403,72.2186 61.6403,68.3853 63.5,64.5 Z M 65.5,68.5 C 68.3415,71.1873 67.6748,72.0206 63.5,71C 64.3805,70.2917 65.0472,69.4584 65.5,68.5 Z"/></g>
<g><path style="opacity:0.621" fill="#19171a" d="M 75.5,64.5 C 76.5,64.5 77.5,64.5 78.5,64.5C 78.238,65.9778 78.5713,67.3112 79.5,68.5C 82.2697,65.5292 85.603,64.3625 89.5,65C 87.7923,66.5095 86.1256,68.0095 84.5,69.5C 86.1667,71.5 87.8333,73.5 89.5,75.5C 88.277,76.6139 86.9437,76.7805 85.5,76C 84,74.5 82.5,73 81,71.5C 79.1079,72.6174 78.2746,74.2841 78.5,76.5C 77.5,76.5 76.5,76.5 75.5,76.5C 75.5,72.5 75.5,68.5 75.5,64.5 Z"/></g>
<g><path style="opacity:0.576" fill="#3aa298" d="M 97.5,66.5 C 98.6935,66.9704 99.3601,67.9704 99.5,69.5C 98.7788,71.6861 98.4455,73.6861 98.5,75.5C 97.5159,72.5719 97.1826,69.5719 97.5,66.5 Z"/></g>
<g><path style="opacity:0.487" fill="#3aa298" d="M 124.5,66.5 C 126.443,67.0783 126.777,68.0783 125.5,69.5C 127.979,71.9685 127.813,73.9685 125,75.5C 124.056,74.737 123.556,73.737 123.5,72.5C 124.156,70.5466 124.489,68.5466 124.5,66.5 Z"/></g>
<g><path style="opacity:0.541" fill="#3aa298" d="M 145.5,66.5 C 146.8,69.0241 146.8,71.6908 145.5,74.5C 144.201,73.91 143.368,72.91 143,71.5C 142.71,73.0441 142.044,74.3774 141,75.5C 140.182,72.7728 140.348,70.1062 141.5,67.5C 142.799,68.09 143.632,69.09 144,70.5C 145.188,69.4366 145.688,68.1033 145.5,66.5 Z"/></g>
<g><path style="opacity:0.511" fill="#3aa298" d="M 153.5,66.5 C 155.443,67.0783 155.777,68.0783 154.5,69.5C 155,70.5 155.5,71.5 156,72.5C 156.826,70.5946 157.993,70.2612 159.5,71.5C 158.469,72.7003 157.635,74.0337 157,75.5C 155.602,74.9491 154.268,74.6158 153,74.5C 152.825,71.8428 152.992,69.1761 153.5,66.5 Z"/></g>
<g><path style="opacity:0.587" fill="#3aa298" d="M 131.5,67.5 C 132.692,68.5659 132.359,69.3992 130.5,70C 133.022,71.6859 132.689,73.0192 129.5,74C 133.226,75.0432 132.893,75.5432 128.5,75.5C 128.854,73.4588 128.854,71.6255 128.5,70C 129.571,69.1482 130.571,68.3149 131.5,67.5 Z"/></g>
<g><path style="opacity:0.5" fill="#3aa298" d="M 189.5,67.5 C 190.525,67.8966 190.692,68.5632 190,69.5C 189.536,68.9056 189.369,68.2389 189.5,67.5 Z"/></g>
<g><path style="opacity:0.553" fill="#3aa298" d="M 101.5,69.5 C 102.496,69.4142 103.329,69.7476 104,70.5C 104.798,72.2588 104.631,73.9255 103.5,75.5C 100.531,74.2351 99.8646,72.2351 101.5,69.5 Z"/></g>
<g><path style="opacity:0.541" fill="#3aa298" d="M 110.5,69.5 C 114.273,71.4905 114.273,73.4905 110.5,75.5C 109.769,73.5988 109.769,71.5988 110.5,69.5 Z"/></g>
<g><path style="opacity:0.612" fill="#3aa298" d="M 115.5,69.5 C 117.764,70.2186 120.097,70.552 122.5,70.5C 122.657,71.8734 122.49,73.2068 122,74.5C 121.667,73.8333 121.333,73.1667 121,72.5C 118.72,76.4121 116.553,76.4121 114.5,72.5C 114.685,71.4163 115.018,70.4163 115.5,69.5 Z"/></g>
<g><path style="opacity:0.566" fill="#3aa298" d="M 170.5,69.5 C 173.177,70.6436 175.843,70.8103 178.5,70C 179.76,71.8138 179.76,73.6471 178.5,75.5C 176.866,75.032 175.7,74.032 175,72.5C 173.171,74.1558 171.837,76.1558 171,78.5C 170.502,75.5184 170.335,72.5184 170.5,69.5 Z"/></g>
<g><path style="opacity:0.541" fill="#3aa298" d="M 181.5,69.5 C 183.074,69.9371 184.241,70.9371 185,72.5C 186.249,68.6837 187.415,68.8503 188.5,73C 187.902,74.3012 186.902,75.1345 185.5,75.5C 184.167,74.1667 182.833,74.1667 181.5,75.5C 180.769,73.5988 180.769,71.5988 181.5,69.5 Z"/></g>
<g><path style="opacity:0.613" fill="#3aa298" d="M 147.5,70.5 C 148.833,70.5 150.167,70.5 151.5,70.5C 151.725,72.7159 150.892,74.3826 149,75.5C 147.731,74.0953 147.231,72.4286 147.5,70.5 Z"/></g>
<g><path style="opacity:0.537" fill="#3aa298" d="M 161.5,70.5 C 162.675,70.281 163.675,70.6143 164.5,71.5C 163.167,72.5 163.167,73.5 164.5,74.5C 163.311,75.4287 161.978,75.762 160.5,75.5C 160.366,73.7085 160.699,72.0418 161.5,70.5 Z"/></g>
<g><path style="opacity:0.6" fill="#3aa298" d="M 189.5,70.5 C 191.5,70.5 193.5,70.5 195.5,70.5C 195.725,72.7159 194.892,74.3826 193,75.5C 192.085,74.6721 191.419,73.6721 191,72.5C 190.667,73.1667 190.333,73.8333 190,74.5C 189.51,73.2068 189.343,71.8734 189.5,70.5 Z"/></g>
<g><path style="opacity:0.695" fill="#3aa298" d="M 196.5,70.5 C 197.833,70.5 199.167,70.5 200.5,70.5C 200.657,71.8734 200.49,73.2068 200,74.5C 199.374,72.0087 198.541,72.0087 197.5,74.5C 196.571,73.3112 196.238,71.9778 196.5,70.5 Z"/></g>
<g><path style="opacity:0.371" fill="#3aa298" d="M 133.5,73.5 C 135.97,74.3603 136.137,75.6936 134,77.5C 133.51,76.2068 133.343,74.8734 133.5,73.5 Z"/></g>
</svg>
